<svg width="3000" height="4000"  xmlns="http://www.w3.org/2000/svg" xmlns:xlink="http://www.w3.org/1999/xlink">
<image xlink:href="tiles/14-9056-5711.png" height="256" width="256" transform="translate(0 0)"/>
<image xlink:href="tiles/14-9056-5712.png" height="256" width="256" transform="translate(0 256)"/>
<image xlink:href="tiles/14-9056-5713.png" height="256" width="256" transform="translate(0 512)"/>
<image xlink:href="tiles/14-9056-5714.png" height="256" width="256" transform="translate(0 768)"/>
<image xlink:href="tiles/14-9056-5715.png" height="256" width="256" transform="translate(0 1024)"/>
<image xlink:href="tiles/14-9056-5716.png" height="256" width="256" transform="translate(0 1280)"/>
<image xlink:href="tiles/14-9056-5717.png" height="256" width="256" transform="translate(0 1536)"/>
<image xlink:href="tiles/14-9056-5718.png" height="256" width="256" transform="translate(0 1792)"/>
<image xlink:href="tiles/14-9056-5719.png" height="256" width="256" transform="translate(0 2048)"/>
<image xlink:href="tiles/14-9056-5720.png" height="256" width="256" transform="translate(0 2304)"/>
<image xlink:href="tiles/14-9056-5721.png" height="256" width="256" transform="translate(0 2560)"/>
<image xlink:href="tiles/14-9056-5722.png" height="256" width="256" transform="translate(0 2816)"/>
<image xlink:href="tiles/14-9056-5723.png" height="256" width="256" transform="translate(0 3072)"/>
<image xlink:href="tiles/14-9056-5724.png" height="256" width="256" transform="translate(0 3328)"/>
<image xlink:href="tiles/14-9056-5725.png" height="256" width="256" transform="translate(0 3584)"/>
<image xlink:href="tiles/14-9056-5726.png" height="256" width="256" transform="translate(0 3840)"/>
<image xlink:href="tiles/14-9057-5711.png" height="256" width="256" transform="translate(256 0)"/>
<image xlink:href="tiles/14-9057-5712.png" height="256" width="256" transform="translate(256 256)"/>
<image xlink:href="tiles/14-9057-5713.png" height="256" width="256" transform="translate(256 512)"/>
<image xlink:href="tiles/14-9057-5714.png" height="256" width="256" transform="translate(256 768)"/>
<image xlink:href="tiles/14-9057-5715.png" height="256" width="256" transform="translate(256 1024)"/>
<image xlink:href="tiles/14-9057-5716.png" height="256" width="256" transform="translate(256 1280)"/>
<image xlink:href="tiles/14-9057-5717.png" height="256" width="256" transform="translate(256 1536)"/>
<image xlink:href="tiles/14-9057-5718.png" height="256" width="256" transform="translate(256 1792)"/>
<image xlink:href="tiles/14-9057-5719.png" height="256" width="256" transform="translate(256 2048)"/>
<image xlink:href="tiles/14-9057-5720.png" height="256" width="256" transform="translate(256 2304)"/>
<image xlink:href="tiles/14-9057-5721.png" height="256" width="256" transform="translate(256 2560)"/>
<image xlink:href="tiles/14-9057-5722.png" height="256" width="256" transform="translate(256 2816)"/>
<image xlink:href="tiles/14-9057-5723.png" height="256" width="256" transform="translate(256 3072)"/>
<image xlink:href="tiles/14-9057-5724.png" height="256" width="256" transform="translate(256 3328)"/>
<image xlink:href="tiles/14-9057-5725.png" height="256" width="256" transform="translate(256 3584)"/>
<image xlink:href="tiles/14-9057-5726.png" height="256" width="256" transform="translate(256 3840)"/>
<image xlink:href="tiles/14-9058-5711.png" height="256" width="256" transform="translate(512 0)"/>
<image xlink:href="tiles/14-9058-5712.png" height="256" width="256" transform="translate(512 256)"/>
<image xlink:href="tiles/14-9058-5713.png" height="256" width="256" transform="translate(512 512)"/>
<image xlink:href="tiles/14-9058-5714.png" height="256" width="256" transform="translate(512 768)"/>
<image xlink:href="tiles/14-9058-5715.png" height="256" width="256" transform="translate(512 1024)"/>
<image xlink:href="tiles/14-9058-5716.png" height="256" width="256" transform="translate(512 1280)"/>
<image xlink:href="tiles/14-9058-5717.png" height="256" width="256" transform="translate(512 1536)"/>
<image xlink:href="tiles/14-9058-5718.png" height="256" width="256" transform="translate(512 1792)"/>
<image xlink:href="tiles/14-9058-5719.png" height="256" width="256" transform="translate(512 2048)"/>
<image xlink:href="tiles/14-9058-5720.png" height="256" width="256" transform="translate(512 2304)"/>
<image xlink:href="tiles/14-9058-5721.png" height="256" width="256" transform="translate(512 2560)"/>
<image xlink:href="tiles/14-9058-5722.png" height="256" width="256" transform="translate(512 2816)"/>
<image xlink:href="tiles/14-9058-5723.png" height="256" width="256" transform="translate(512 3072)"/>
<image xlink:href="tiles/14-9058-5724.png" height="256" width="256" transform="translate(512 3328)"/>
<image xlink:href="tiles/14-9058-5725.png" height="256" width="256" transform="translate(512 3584)"/>
<image xlink:href="tiles/14-9058-5726.png" height="256" width="256" transform="translate(512 3840)"/>
<image xlink:href="tiles/14-9059-5711.png" height="256" width="256" transform="translate(768 0)"/>
<image xlink:href="tiles/14-9059-5712.png" height="256" width="256" transform="translate(768 256)"/>
<image xlink:href="tiles/14-9059-5713.png" height="256" width="256" transform="translate(768 512)"/>
<image xlink:href="tiles/14-9059-5714.png" height="256" width="256" transform="translate(768 768)"/>
<image xlink:href="tiles/14-9059-5715.png" height="256" width="256" transform="translate(768 1024)"/>
<image xlink:href="tiles/14-9059-5716.png" height="256" width="256" transform="translate(768 1280)"/>
<image xlink:href="tiles/14-9059-5717.png" height="256" width="256" transform="translate(768 1536)"/>
<image xlink:href="tiles/14-9059-5718.png" height="256" width="256" transform="translate(768 1792)"/>
<image xlink:href="tiles/14-9059-5719.png" height="256" width="256" transform="translate(768 2048)"/>
<image xlink:href="tiles/14-9059-5720.png" height="256" width="256" transform="translate(768 2304)"/>
<image xlink:href="tiles/14-9059-5721.png" height="256" width="256" transform="translate(768 2560)"/>
<image xlink:href="tiles/14-9059-5722.png" height="256" width="256" transform="translate(768 2816)"/>
<image xlink:href="tiles/14-9059-5723.png" height="256" width="256" transform="translate(768 3072)"/>
<image xlink:href="tiles/14-9059-5724.png" height="256" width="256" transform="translate(768 3328)"/>
<image xlink:href="tiles/14-9059-5725.png" height="256" width="256" transform="translate(768 3584)"/>
<image xlink:href="tiles/14-9059-5726.png" height="256" width="256" transform="translate(768 3840)"/>
<image xlink:href="tiles/14-9060-5711.png" height="256" width="256" transform="translate(1024 0)"/>
<image xlink:href="tiles/14-9060-5712.png" height="256" width="256" transform="translate(1024 256)"/>
<image xlink:href="tiles/14-9060-5713.png" height="256" width="256" transform="translate(1024 512)"/>
<image xlink:href="tiles/14-9060-5714.png" height="256" width="256" transform="translate(1024 768)"/>
<image xlink:href="tiles/14-9060-5715.png" height="256" width="256" transform="translate(1024 1024)"/>
<image xlink:href="tiles/14-9060-5716.png" height="256" width="256" transform="translate(1024 1280)"/>
<image xlink:href="tiles/14-9060-5717.png" height="256" width="256" transform="translate(1024 1536)"/>
<image xlink:href="tiles/14-9060-5718.png" height="256" width="256" transform="translate(1024 1792)"/>
<image xlink:href="tiles/14-9060-5719.png" height="256" width="256" transform="translate(1024 2048)"/>
<image xlink:href="tiles/14-9060-5720.png" height="256" width="256" transform="translate(1024 2304)"/>
<image xlink:href="tiles/14-9060-5721.png" height="256" width="256" transform="translate(1024 2560)"/>
<image xlink:href="tiles/14-9060-5722.png" height="256" width="256" transform="translate(1024 2816)"/>
<image xlink:href="tiles/14-9060-5723.png" height="256" width="256" transform="translate(1024 3072)"/>
<image xlink:href="tiles/14-9060-5724.png" height="256" width="256" transform="translate(1024 3328)"/>
<image xlink:href="tiles/14-9060-5725.png" height="256" width="256" transform="translate(1024 3584)"/>
<image xlink:href="tiles/14-9060-5726.png" height="256" width="256" transform="translate(1024 3840)"/>
<image xlink:href="tiles/14-9061-5711.png" height="256" width="256" transform="translate(1280 0)"/>
<image xlink:href="tiles/14-9061-5712.png" height="256" width="256" transform="translate(1280 256)"/>
<image xlink:href="tiles/14-9061-5713.png" height="256" width="256" transform="translate(1280 512)"/>
<image xlink:href="tiles/14-9061-5714.png" height="256" width="256" transform="translate(1280 768)"/>
<image xlink:href="tiles/14-9061-5715.png" height="256" width="256" transform="translate(1280 1024)"/>
<image xlink:href="tiles/14-9061-5716.png" height="256" width="256" transform="translate(1280 1280)"/>
<image xlink:href="tiles/14-9061-5717.png" height="256" width="256" transform="translate(1280 1536)"/>
<image xlink:href="tiles/14-9061-5718.png" height="256" width="256" transform="translate(1280 1792)"/>
<image xlink:href="tiles/14-9061-5719.png" height="256" width="256" transform="translate(1280 2048)"/>
<image xlink:href="tiles/14-9061-5720.png" height="256" width="256" transform="translate(1280 2304)"/>
<image xlink:href="tiles/14-9061-5721.png" height="256" width="256" transform="translate(1280 2560)"/>
<image xlink:href="tiles/14-9061-5722.png" height="256" width="256" transform="translate(1280 2816)"/>
<image xlink:href="tiles/14-9061-5723.png" height="256" width="256" transform="translate(1280 3072)"/>
<image xlink:href="tiles/14-9061-5724.png" height="256" width="256" transform="translate(1280 3328)"/>
<image xlink:href="tiles/14-9061-5725.png" height="256" width="256" transform="translate(1280 3584)"/>
<image xlink:href="tiles/14-9061-5726.png" height="256" width="256" transform="translate(1280 3840)"/>
<image xlink:href="tiles/14-9062-5711.png" height="256" width="256" transform="translate(1536 0)"/>
<image xlink:href="tiles/14-9062-5712.png" height="256" width="256" transform="translate(1536 256)"/>
<image xlink:href="tiles/14-9062-5713.png" height="256" width="256" transform="translate(1536 512)"/>
<image xlink:href="tiles/14-9062-5714.png" height="256" width="256" transform="translate(1536 768)"/>
<image xlink:href="tiles/14-9062-5715.png" height="256" width="256" transform="translate(1536 1024)"/>
<image xlink:href="tiles/14-9062-5716.png" height="256" width="256" transform="translate(1536 1280)"/>
<image xlink:href="tiles/14-9062-5717.png" height="256" width="256" transform="translate(1536 1536)"/>
<image xlink:href="tiles/14-9062-5718.png" height="256" width="256" transform="translate(1536 1792)"/>
<image xlink:href="tiles/14-9062-5719.png" height="256" width="256" transform="translate(1536 2048)"/>
<image xlink:href="tiles/14-9062-5720.png" height="256" width="256" transform="translate(1536 2304)"/>
<image xlink:href="tiles/14-9062-5721.png" height="256" width="256" transform="translate(1536 2560)"/>
<image xlink:href="tiles/14-9062-5722.png" height="256" width="256" transform="translate(1536 2816)"/>
<image xlink:href="tiles/14-9062-5723.png" height="256" width="256" transform="translate(1536 3072)"/>
<image xlink:href="tiles/14-9062-5724.png" height="256" width="256" transform="translate(1536 3328)"/>
<image xlink:href="tiles/14-9062-5725.png" height="256" width="256" transform="translate(1536 3584)"/>
<image xlink:href="tiles/14-9062-5726.png" height="256" width="256" transform="translate(1536 3840)"/>
<image xlink:href="tiles/14-9063-5711.png" height="256" width="256" transform="translate(1792 0)"/>
<image xlink:href="tiles/14-9063-5712.png" height="256" width="256" transform="translate(1792 256)"/>
<image xlink:href="tiles/14-9063-5713.png" height="256" width="256" transform="translate(1792 512)"/>
<image xlink:href="tiles/14-9063-5714.png" height="256" width="256" transform="translate(1792 768)"/>
<image xlink:href="tiles/14-9063-5715.png" height="256" width="256" transform="translate(1792 1024)"/>
<image xlink:href="tiles/14-9063-5716.png" height="256" width="256" transform="translate(1792 1280)"/>
<image xlink:href="tiles/14-9063-5717.png" height="256" width="256" transform="translate(1792 1536)"/>
<image xlink:href="tiles/14-9063-5718.png" height="256" width="256" transform="translate(1792 1792)"/>
<image xlink:href="tiles/14-9063-5719.png" height="256" width="256" transform="translate(1792 2048)"/>
<image xlink:href="tiles/14-9063-5720.png" height="256" width="256" transform="translate(1792 2304)"/>
<image xlink:href="tiles/14-9063-5721.png" height="256" width="256" transform="translate(1792 2560)"/>
<image xlink:href="tiles/14-9063-5722.png" height="256" width="256" transform="translate(1792 2816)"/>
<image xlink:href="tiles/14-9063-5723.png" height="256" width="256" transform="translate(1792 3072)"/>
<image xlink:href="tiles/14-9063-5724.png" height="256" width="256" transform="translate(1792 3328)"/>
<image xlink:href="tiles/14-9063-5725.png" height="256" width="256" transform="translate(1792 3584)"/>
<image xlink:href="tiles/14-9063-5726.png" height="256" width="256" transform="translate(1792 3840)"/>
<image xlink:href="tiles/14-9064-5711.png" height="256" width="256" transform="translate(2048 0)"/>
<image xlink:href="tiles/14-9064-5712.png" height="256" width="256" transform="translate(2048 256)"/>
<image xlink:href="tiles/14-9064-5713.png" height="256" width="256" transform="translate(2048 512)"/>
<image xlink:href="tiles/14-9064-5714.png" height="256" width="256" transform="translate(2048 768)"/>
<image xlink:href="tiles/14-9064-5715.png" height="256" width="256" transform="translate(2048 1024)"/>
<image xlink:href="tiles/14-9064-5716.png" height="256" width="256" transform="translate(2048 1280)"/>
<image xlink:href="tiles/14-9064-5717.png" height="256" width="256" transform="translate(2048 1536)"/>
<image xlink:href="tiles/14-9064-5718.png" height="256" width="256" transform="translate(2048 1792)"/>
<image xlink:href="tiles/14-9064-5719.png" height="256" width="256" transform="translate(2048 2048)"/>
<image xlink:href="tiles/14-9064-5720.png" height="256" width="256" transform="translate(2048 2304)"/>
<image xlink:href="tiles/14-9064-5721.png" height="256" width="256" transform="translate(2048 2560)"/>
<image xlink:href="tiles/14-9064-5722.png" height="256" width="256" transform="translate(2048 2816)"/>
<image xlink:href="tiles/14-9064-5723.png" height="256" width="256" transform="translate(2048 3072)"/>
<image xlink:href="tiles/14-9064-5724.png" height="256" width="256" transform="translate(2048 3328)"/>
<image xlink:href="tiles/14-9064-5725.png" height="256" width="256" transform="translate(2048 3584)"/>
<image xlink:href="tiles/14-9064-5726.png" height="256" width="256" transform="translate(2048 3840)"/>
<image xlink:href="tiles/14-9065-5711.png" height="256" width="256" transform="translate(2304 0)"/>
<image xlink:href="tiles/14-9065-5712.png" height="256" width="256" transform="translate(2304 256)"/>
<image xlink:href="tiles/14-9065-5713.png" height="256" width="256" transform="translate(2304 512)"/>
<image xlink:href="tiles/14-9065-5714.png" height="256" width="256" transform="translate(2304 768)"/>
<image xlink:href="tiles/14-9065-5715.png" height="256" width="256" transform="translate(2304 1024)"/>
<image xlink:href="tiles/14-9065-5716.png" height="256" width="256" transform="translate(2304 1280)"/>
<image xlink:href="tiles/14-9065-5717.png" height="256" width="256" transform="translate(2304 1536)"/>
<image xlink:href="tiles/14-9065-5718.png" height="256" width="256" transform="translate(2304 1792)"/>
<image xlink:href="tiles/14-9065-5719.png" height="256" width="256" transform="translate(2304 2048)"/>
<image xlink:href="tiles/14-9065-5720.png" height="256" width="256" transform="translate(2304 2304)"/>
<image xlink:href="tiles/14-9065-5721.png" height="256" width="256" transform="translate(2304 2560)"/>
<image xlink:href="tiles/14-9065-5722.png" height="256" width="256" transform="translate(2304 2816)"/>
<image xlink:href="tiles/14-9065-5723.png" height="256" width="256" transform="translate(2304 3072)"/>
<image xlink:href="tiles/14-9065-5724.png" height="256" width="256" transform="translate(2304 3328)"/>
<image xlink:href="tiles/14-9065-5725.png" height="256" width="256" transform="translate(2304 3584)"/>
<image xlink:href="tiles/14-9065-5726.png" height="256" width="256" transform="translate(2304 3840)"/>
<image xlink:href="tiles/14-9066-5711.png" height="256" width="256" transform="translate(2560 0)"/>
<image xlink:href="tiles/14-9066-5712.png" height="256" width="256" transform="translate(2560 256)"/>
<image xlink:href="tiles/14-9066-5713.png" height="256" width="256" transform="translate(2560 512)"/>
<image xlink:href="tiles/14-9066-5714.png" height="256" width="256" transform="translate(2560 768)"/>
<image xlink:href="tiles/14-9066-5715.png" height="256" width="256" transform="translate(2560 1024)"/>
<image xlink:href="tiles/14-9066-5716.png" height="256" width="256" transform="translate(2560 1280)"/>
<image xlink:href="tiles/14-9066-5717.png" height="256" width="256" transform="translate(2560 1536)"/>
<image xlink:href="tiles/14-9066-5718.png" height="256" width="256" transform="translate(2560 1792)"/>
<image xlink:href="tiles/14-9066-5719.png" height="256" width="256" transform="translate(2560 2048)"/>
<image xlink:href="tiles/14-9066-5720.png" height="256" width="256" transform="translate(2560 2304)"/>
<image xlink:href="tiles/14-9066-5721.png" height="256" width="256" transform="translate(2560 2560)"/>
<image xlink:href="tiles/14-9066-5722.png" height="256" width="256" transform="translate(2560 2816)"/>
<image xlink:href="tiles/14-9066-5723.png" height="256" width="256" transform="translate(2560 3072)"/>
<image xlink:href="tiles/14-9066-5724.png" height="256" width="256" transform="translate(2560 3328)"/>
<image xlink:href="tiles/14-9066-5725.png" height="256" width="256" transform="translate(2560 3584)"/>
<image xlink:href="tiles/14-9066-5726.png" height="256" width="256" transform="translate(2560 3840)"/>
<image xlink:href="tiles/14-9067-5711.png" height="256" width="256" transform="translate(2816 0)"/>
<image xlink:href="tiles/14-9067-5712.png" height="256" width="256" transform="translate(2816 256)"/>
<image xlink:href="tiles/14-9067-5713.png" height="256" width="256" transform="translate(2816 512)"/>
<image xlink:href="tiles/14-9067-5714.png" height="256" width="256" transform="translate(2816 768)"/>
<image xlink:href="tiles/14-9067-5715.png" height="256" width="256" transform="translate(2816 1024)"/>
<image xlink:href="tiles/14-9067-5716.png" height="256" width="256" transform="translate(2816 1280)"/>
<image xlink:href="tiles/14-9067-5717.png" height="256" width="256" transform="translate(2816 1536)"/>
<image xlink:href="tiles/14-9067-5718.png" height="256" width="256" transform="translate(2816 1792)"/>
<image xlink:href="tiles/14-9067-5719.png" height="256" width="256" transform="translate(2816 2048)"/>
<image xlink:href="tiles/14-9067-5720.png" height="256" width="256" transform="translate(2816 2304)"/>
<image xlink:href="tiles/14-9067-5721.png" height="256" width="256" transform="translate(2816 2560)"/>
<image xlink:href="tiles/14-9067-5722.png" height="256" width="256" transform="translate(2816 2816)"/>
<image xlink:href="tiles/14-9067-5723.png" height="256" width="256" transform="translate(2816 3072)"/>
<image xlink:href="tiles/14-9067-5724.png" height="256" width="256" transform="translate(2816 3328)"/>
<image xlink:href="tiles/14-9067-5725.png" height="256" width="256" transform="translate(2816 3584)"/>
<image xlink:href="tiles/14-9067-5726.png" height="256" width="256" transform="translate(2816 3840)"/>
</svg>
